<svg version="1.1" id="Layer_1" xmlns="http://www.w3.org/2000/svg" xmlns:xlink="http://www.w3.org/1999/xlink" x="0px" y="0px" viewBox="0 0 500 500" style="width: 145px;" xml:space="preserve" data-imageid="adventure-76" imageName="Adventure" class="illustrations_image">
<style type="text/css">
	.st0_adventure-76{fill:#68E1FD;}
	.st1_adventure-76{fill:#093F68;}
	.st2_adventure-76{fill:#70CC40;}
	.st3_adventure-76{fill:#FFFFFF;}
	.st4_adventure-76{fill:#F56132;}
	.st5_adventure-76{fill:#FFBC0E;}
	.st6_adventure-76{fill:#FFC9B0;}
	.st7_adventure-76{fill:#725858;}
</style>
<g id="map_adventure-76">
	<polygon class="st0_adventure-76 targetColor" points="445.3,141.3 446.7,407.9 380.8,392.2 365.2,388.5 353.9,385.8 335.1,390.5 261.3,408.9 209,396.5 &#10;&#9;&#9;168.5,386.8 75.9,409.9 74.4,143.3 123.5,131.1 126.7,130.2 167,120.2 245.9,139 247.2,139.3 259.9,142.3 341.1,122 352.4,119.1 &#9;&#10;&#9;&#9;" style="fill: rgb(104, 225, 253);"/>
	<path class="st1_adventure-76" d="M447.2,410.2c-0.3,0.1-0.7,0.1-1,0l-92.3-21.9l-92,22.9c-0.4,0.1-0.8,0.1-1.2,0l-92.3-22l-92,22.9&#10;&#9;&#9;c-1.3,0.3-2.6-0.5-2.9-1.8c0-0.2-0.1-0.3-0.1-0.5l-1.5-266.8c0-1.1,0.7-2.1,1.8-2.3l92.6-23.1c0.4-0.1,0.8-0.1,1.1,0l92.3,22&#10;&#9;&#9;l92-22.9c0.4-0.1,0.8-0.1,1.1,0l92.8,22.1c1.1,0.3,1.8,1.2,1.8,2.3l1.4,266.6c0,0.7-0.3,1.4-0.9,1.9&#10;&#9;&#9;C448,410,447.6,410.2,447.2,410.2z M353.4,383.5c0.3-0.1,0.7-0.1,1,0l89.9,21.5l-1.4-261.8l-90.4-21.6l-92,22.9&#10;&#9;&#9;c-0.4,0.1-0.8,0.1-1.1,0l-13.9-3.3l-78.3-18.6l-90.3,22.6L78.2,407l89.7-22.4c0.4-0.1,0.8-0.1,1.1,0l92.3,22L353.4,383.5&#10;&#9;&#9;L353.4,383.5z"/>
	<path class="st2_adventure-76" d="M445.3,141.3l1.5,266.7l-65.8-15.7l-15.5-3.8c3.3-5,7.7-9.1,12.8-12c6.3-3.4,13.5-5.1,19-9.7&#10;&#9;&#9;c8.7-7,10.7-21,4.6-30.5c-2-3.2-4.6-6.1-7.6-8.4c-2.8-2-5.1-3.6-6.2-7.1c-1.1-3.7-0.3-7.7,2.1-10.7c1.5-1.8,3.7-3.4,3.7-5.8&#10;&#9;&#9;c-0.1-1.7-1.1-3.3-2.6-4.1c-1.5-0.8-3.2-1.3-4.9-1.6c-8.4-1.8-17.1-4.5-23.2-10.6s-9-16.2-4.4-23.5c3.5-5.6,10.1-8.1,16.3-10.2&#10;&#9;&#9;c4.7-1.7,9.6-3,14.6-3.8c5.9-0.7,11.9-0.2,17.7-1.2c5.3-0.9,10.1-3.3,13.3-7.8s2.8-11.1,3.5-16.3c1.7-12,3.1-24.7-2-36.2&#10;&#9;&#9;c-5.3-11.9-16.6-20-27.8-26.9c-8.8-5.5-18.2-10.7-28.6-11.2c-5.4-0.2-11.1,0.6-15.9-1.8c-2.9-1.6-5.3-4-6.7-7&#10;&#9;&#9;c-3.3-6.3-4-13.6-1.9-20.3l11.3-2.7L445.3,141.3z"/>
	<path class="st1_adventure-76" d="M449.8,411.9l-89.2-21.4l2.4-3.6c3.5-5.4,8.3-9.8,13.9-13c2.5-1.3,5-2.5,7.6-3.5c4-1.7,7.9-3.3,11-5.9&#10;&#9;&#9;c7.4-6,9.3-18.4,4-26.5c-1.5-2.3-3.9-5.6-6.8-7.6s-6-4.2-7.3-8.7c-1.4-4.7-0.4-9.7,2.7-13.5c0.4-0.5,0.8-0.9,1.2-1.4&#10;&#9;&#9;c0.9-0.9,1.8-1.9,1.8-2.6c-0.1-0.7-0.6-1.2-1.2-1.5c-1.2-0.6-2.4-1-3.8-1.2h-0.2c-7.8-1.7-17.7-4.5-24.7-11.4&#10;&#9;&#9;c-6.6-6.5-10.5-18.2-4.8-27.3c4-6.4,11.4-9.3,17.9-11.5c4.9-1.8,10-3.1,15.2-3.9c2.8-0.4,5.6-0.4,8.3-0.5c3.1,0,6.2-0.2,9.2-0.7&#10;&#9;&#9;c3.5-0.6,8.3-2.2,11.3-6.5c1.8-2.6,2.2-6.8,2.6-10.8c0.1-1.4,0.3-2.8,0.5-4.2c1.8-12.2,2.9-24-1.7-34.5&#10;&#9;&#9;c-5-11.2-15.8-18.9-26.6-25.6c-7.9-5-17.2-10.3-27.2-10.8c-1.2,0-2.5,0-3.9,0c-4.4,0.1-9,0.1-13.2-2c-3.5-1.8-6.3-4.8-8-8.3&#10;&#9;&#9;c-3.7-7-4.5-15.2-2.1-22.7l0.5-1.6l13.6-3.3l95.6,22.9L449.8,411.9z M370.5,386.7l11.1,2.7l62.1,14.8l-1.4-260.6l-89.6-21.4&#10;&#9;&#9;l-8.9,2.2c-1.3,5.6-0.5,11.4,2.2,16.4l0,0.1c1.1,2.4,3,4.4,5.4,5.6c2.9,1.5,6.5,1.4,10.4,1.4c1.4,0,2.8,0,4.2,0&#10;&#9;&#9;c11.5,0.6,21.5,6.4,30.1,11.7c11.1,6.8,23.3,15.5,29,28.2c5.3,12,4,25.2,2.2,37.8c-0.2,1.2-0.3,2.5-0.4,3.9&#10;&#9;&#9;c-0.4,4.6-0.9,9.8-3.6,13.7c-3.3,4.8-8.6,7.9-15.2,9c-3.3,0.5-6.7,0.7-10.1,0.8c-2.7,0.1-5.2,0.1-7.7,0.5c-4.8,0.7-9.5,1.9-14,3.6&#10;&#9;&#9;c-5.8,2-11.8,4.3-14.8,9c-3.9,6.2-1,14.9,4,19.8c5.9,5.8,14.7,8.3,21.7,9.8h0.2c2,0.3,3.8,1,5.6,1.9c2.5,1.4,4,4,4.1,6.8&#10;&#9;&#9;c-0.1,3-1.9,4.9-3.4,6.5c-0.3,0.4-0.7,0.7-1,1.1c-1.8,2.2-2.5,5.2-1.7,8c0.7,2.4,2.2,3.5,5,5.5c3.7,2.6,6.5,6.5,8.3,9.2&#10;&#9;&#9;c7,10.7,4.7,26.5-5.2,34.5c-3.8,3.1-8.2,5-12.4,6.8c-2.5,1-4.8,2-7,3.2C376.2,381.1,373.1,383.7,370.5,386.7z"/>
	<path class="st2_adventure-76" d="M232.2,227.2c1.9,8.6-1.5,17.7-6.9,24c-12.4,14.6-28.2,11.8-43.2,19.8c-14.8,8-28.4,20.5-45.3,22.4&#10;&#9;&#9;c-4.8,0.7-9.7-0.2-14-2.5c-4.6-2.9-7.5-7.8-7.8-13.1c-0.1-5.7,3.1-10.9,6.8-14.9s7.9-7.2,11-11.9c4.9-7.5,5.8-17.7,4.3-26.8&#10;&#9;&#9;c-2.5-16-9.7-23.9-18-35.9c-6.6-9.8-5.1-26.5-2.7-38.9c1.3-6.4,3.7-12.5,6.9-18.2l3.2-0.8l40.3-10l78.9,18.8l1.2,0.4&#10;&#9;&#9;c-1.8,9.1-10.9,21-15.4,27.7c-7.6,11.4-20.9,19.1-15.7,33.2c0.8,2.1,1.8,4,3.1,5.9C223.8,213,230.3,218.8,232.2,227.2z"/>
	<path class="st1_adventure-76" d="M141.8,294.9c-1.5,0.3-3.1,0.5-4.6,0.8c-6.1,0.7-11.3-0.3-15.5-3c-5.3-3.2-8.6-8.9-8.8-15.1&#10;&#9;&#9;c-0.1-7,3.9-12.9,7.3-16.6c1.2-1.3,2.5-2.6,3.8-3.8c2.6-2.3,4.9-4.9,6.9-7.7c4.1-6.3,5.6-15.4,3.9-25.2&#10;&#9;&#9;c-2.1-12.9-7.1-20.2-13.6-29.4c-1.3-1.8-2.6-3.7-3.9-5.5c-7-10.5-5.6-27.8-3.1-40.7c1.4-6.6,3.8-13,7.1-18.9c0.3-0.6,0.9-1,1.6-1.1&#10;&#9;&#9;l3.1-0.8l40.3-10c0.4-0.1,0.8-0.1,1.2,0l80.2,19.1c1.2,0.3,2,1.6,1.8,2.8c-1.7,8.1-8.3,17.7-13.1,24.6c-1,1.4-1.8,2.7-2.6,3.9&#10;&#9;&#9;c-2.2,3.2-4.5,6.2-7.1,9c-6.4,7.3-11.6,13.2-8.3,22.1c0.8,1.9,1.7,3.7,2.9,5.4c1.3,2,2.9,4,4.4,5.8c3.7,4.8,7.6,9.7,9.1,16.2l0,0&#10;&#9;&#9;c1.9,8.5-0.9,18.5-7.3,26.1c-8.2,9.6-17.9,12-27.3,14.4c-5.4,1.5-11.1,2.8-16.6,5.8c-4.3,2.4-8.6,5.1-12.8,7.8&#10;&#9;&#9;C161.6,286.7,152.3,292.6,141.8,294.9z M125.1,133c-2.8,5.2-4.9,10.8-6.1,16.6c-2.4,11.9-3.9,27.9,2.2,37c1.3,1.9,2.6,3.8,3.8,5.4&#10;&#9;&#9;c6.7,9.3,12.3,17.4,14.5,31.4c1.8,10.9,0.1,21.2-4.6,28.4c-2.1,3.2-4.7,6.1-7.6,8.6c-1.3,1.2-2.4,2.3-3.7,3.6&#10;&#9;&#9;c-2.9,3.1-6.2,7.8-6.2,13.3c0.2,4.6,2.6,8.8,6.6,11.2c3.3,2.1,7.5,2.8,12.5,2.2c11.3-1.2,21.5-7.8,31.2-14c4.3-2.7,8.6-5.6,13.1-8&#10;&#9;&#9;c5.9-3.2,11.9-4.7,17.7-6.2c8.9-2.4,17.6-4.5,24.8-13c4.3-5,8.3-13.5,6.3-22c-1.2-5.5-4.6-9.7-8.1-14.3c-1.6-2-3.2-4-4.6-6.2&#10;&#9;&#9;c-1.3-2-2.4-4.1-3.3-6.3c-4.3-11.6,2.5-19.4,9.2-26.9c2.5-2.7,4.7-5.5,6.9-8.4c0.8-1.4,1.7-2.7,2.7-3.9c4.2-6,9.6-14,11.8-20.8&#10;&#9;&#9;l-77.3-18.3L125.1,133z"/>
	<path class="st2_adventure-76" d="M328.5,338c-1.5,4.4-2.5,9-3,13.6c-0.8,12.6,5.8,27.5,9.6,38.9l-73.8,18.4l-52.2-12.5c5.2-9,10.9-22.7,18.6-29&#10;&#9;&#9;c12.4-10.1,29-8.9,41.6-21.6c4.1-4.1,7.9-9,9.6-14.9c2.1-7.1,1.3-15.1,1.4-22.7c0.3-13.7,4.6-26.9,12.2-38.3&#10;&#9;&#9;c4.3-6.2,9.8-11.5,16.4-13.6c6.9-2.3,14.5,0.1,18.7,6c3.7,5.3,4.3,12.5,3.9,19.2c-0.2,5.2-0.9,10.4-2.1,15.6c-1,4.3-2.2,8.5-1.9,13&#10;&#9;&#9;c0.5,3.1,1.3,6.1,2.3,9.1C331.8,326.6,330.2,332.3,328.5,338z"/>
	<path class="st1_adventure-76" d="M261.8,411.2c-0.3,0.1-0.7,0.1-1,0l-44-10.5c-10-2.4-10-2.4-10-4.2c0-0.4,0.1-0.9,0.4-1.2&#10;&#9;&#9;c1.4-2.4,2.7-5.1,4.3-7.9c4.1-8,8.8-16.9,14.8-21.8s12.8-7.3,19.4-9.6c8-2.8,15.5-5.3,21.8-11.9c4.7-4.8,7.6-9.2,9.1-13.9&#10;&#9;&#9;c1.5-4.9,1.5-10.2,1.4-15.8c-0.1-2,0-4.2,0-6.3c0.3-14.2,4.7-27.9,12.6-39.7c5.4-7.7,11.2-12.5,17.7-14.5c7.9-2.6,16.6,0.2,21.4,7&#10;&#9;&#9;c3.4,4.9,4.7,11.6,4.3,20.8c-0.2,5.4-0.9,10.7-2.1,16l-0.5,2c-1,3.3-1.4,6.7-1.3,10.2c0.3,2,0.7,3.9,1.3,5.9c0.3,1,0.6,1.9,0.8,2.9&#10;&#9;&#9;c2,7.8,0.5,14-1.4,20l0,0l-0.4,1.2c-1.3,3.8-2.2,7.8-2.6,11.8c-0.6,9.6,3.5,21,7,31c0.9,2.5,1.7,4.9,2.5,7.1c0.4,1.2-0.3,2.6-1.5,3&#10;&#9;&#9;l-0.2,0.1L261.8,411.2L261.8,411.2z M212.6,394.9l48.5,11.6l70.8-17.6c-0.5-1.4-1-3-1.7-4.6c-3.7-10.5-8-22.2-7.2-32.9&#10;&#9;&#9;c0.4-4.4,1.3-8.7,2.8-12.9l0.4-1.1c1.8-5.9,3-10.9,1.3-17.6c-0.2-1-0.5-1.8-0.7-2.8c-0.7-2.2-1.2-4.4-1.5-6.7&#10;&#9;&#9;c-0.2-4,0.2-8,1.4-11.8l0.5-1.9c1.1-5,1.7-10.1,2-15.2c0.4-8-0.8-13.9-3.5-17.8c-3.9-5.7-11-6.7-16.1-5&#10;&#9;&#9;c-5.4,1.7-10.5,5.9-15.1,12.7c-7.4,10.9-11.5,23.8-11.8,37c0,2.1,0,4.1,0.1,6.1c0.1,5.7,0.1,11.6-1.6,17.2s-5,10.6-10.3,16&#10;&#9;&#9;c-7.2,7.2-15.6,10.1-23.6,13c-6.5,2.3-12.7,4.5-18.1,8.9s-9.7,12.8-13.6,20.3C214.5,391.6,213.6,393.3,212.6,394.9L212.6,394.9z"/>
	<path class="st1_adventure-76" d="M169,389.1l-0.5,0.1c-1.3,0-2.4-1-2.4-2.3l0,0l-1.4-266.6c-0.1-1.2,0.9-2.2,2.1-2.3c0.1,0,0.1,0,0.2,0&#10;&#9;&#9;c1.3,0,2.3,1,2.3,2.2c0,0,0,0,0,0.1l1.4,266.6C170.8,388,170,389,169,389.1z"/>
	<path class="st1_adventure-76" d="M261.8,411.2l-0.5,0.1c-1.3,0-2.4-1-2.4-2.3l0,0l-1.5-266.7c0-1.3,1.1-2.3,2.4-2.3c1.2,0,2.2,1,2.3,2.2&#10;&#9;&#9;l1.5,266.7C263.7,410,262.9,411,261.8,411.2z"/>
	<path class="st1_adventure-76" d="M354.4,388.2l-0.5,0.1c-1.3,0-2.4-1-2.4-2.3L350,119.4c-0.1-1.3,0.8-2.4,2.1-2.6c1.3-0.1,2.4,0.8,2.6,2.1&#10;&#9;&#9;c0,0.1,0,0.2,0,0.3l1.4,266.6C356.2,386.9,355.5,387.9,354.4,388.2z"/>
	<path class="st1_adventure-76" d="M96.8,370.5c-1.3,0.2-2.5-0.7-2.7-2c-0.2-1.1,0.5-2.2,1.6-2.6l37.2-10.7c1.3-0.3,2.6,0.4,2.9,1.7&#10;&#9;&#9;c0.3,1.3-0.4,2.5-1.6,2.9l-37.2,10.7L96.8,370.5z"/>
	<path class="st1_adventure-76" d="M96.7,345.3c-1.2,0.3-2.5-0.5-2.8-1.7c-0.3-1.2,0.5-2.5,1.7-2.8l0,0l0,0l21.7-6.2c1.3-0.3,2.5,0.4,2.9,1.7&#10;&#9;&#9;c0.3,1.3-0.4,2.6-1.7,2.9c0,0,0,0,0,0l0,0l-21.7,6.2L96.7,345.3L96.7,345.3z"/>
	<path class="st2_adventure-76" d="M285.6,205.6c2.9-0.8,6.1-2.4,8.9-0.9s3.3,5.6,5.9,6.9c5.5,2.9,7.2-2,12.3-3.5c10.2-2.9,14.5,10.6,23.3,9.2&#10;&#9;&#9;c4.3-0.7,5.7-6.6,3.6-10.5s-6.4-5.8-10.4-7.4l-7.5-3.2c-2.5-1.1-5.4-2.5-6.4-5.1c-0.9-2.2-0.3-4.7-0.2-7.1&#10;&#9;&#9;c0.4-16.6-16.6-9.9-24.3-3.2C286.5,184.4,269.6,210,285.6,205.6z"/>
	<path class="st1_adventure-76" d="M336.6,219.5l-0.5,0.1c-5.2,0.9-9-2.4-12.3-5.1s-6.4-5.4-10.6-4.2c-1.4,0.4-2.6,1.1-3.8,2&#10;&#9;&#9;c-2.4,1.7-5.4,3.7-10.2,1.2c-1.6-1-2.9-2.4-3.7-4.2c-0.5-1-1.2-1.9-2.1-2.6c-1.4-0.7-3.3,0-5.5,0.6l-1.8,0.5l0,0&#10;&#9;&#9;c-5.7,1.5-8-0.3-9-2.1c-3.7-7,9.4-24.5,12.1-26.9c5-4.3,15.6-10,22.6-6.8c2.7,1.2,5.8,4.4,5.5,11.8c0,0.7,0,1.5-0.1,2.2&#10;&#9;&#9;c-0.2,1.3-0.2,2.7,0.1,3.9c0.6,1.8,2.9,2.8,5.2,3.9l7.4,3.2c3.7,1.6,8.9,3.8,11.5,8.5c1.6,3,1.7,6.6,0.3,9.6&#10;&#9;&#9;C340.8,217.5,338.9,219.1,336.6,219.5z M312.7,205.6c6.2-1.4,10.6,2.3,14.2,5.3c3,2.4,5.5,4.6,8.6,4c0.9-0.2,1.7-0.9,2-1.7&#10;&#9;&#9;c0.8-1.7,0.7-3.6-0.1-5.2c-1.7-3-5.3-4.7-9.2-6.4l-7.4-3.2c-2.3-1-6.2-2.7-7.7-6.4c-0.7-2-0.8-4.1-0.5-6.2c0-0.6,0.1-1.3,0.1-1.8&#10;&#9;&#9;c0.1-4-0.8-6.5-2.9-7.4c-4-1.9-12.3,1.6-17.4,6c-3.6,3.2-12.7,17.9-11.1,21.1c0.2,0.2,1.1,0.5,3.6-0.1l0,0c0.5-0.1,1.1-0.4,1.6-0.5&#10;&#9;&#9;c2.6-0.8,5.9-1.8,8.9-0.3c1.8,1,3.3,2.6,4.2,4.4c0.4,0.9,1.1,1.7,1.8,2.4c2.3,1.2,3.2,0.6,5.4-0.9c1.6-1.1,3.4-2,5.2-2.6&#10;&#9;&#9;L312.7,205.6z"/>
	<path class="st2_adventure-76" d="M405,224.3c3.8-3.9,8.6-16.1,0.1-17.9c-7.8-1.6-9.2,11.5-9.2,16.4c0,0.8,0.1,1.6,0.3,2.4&#10;&#9;&#9;c0.8,1.6,2.6,2.4,4.4,2C402.4,226.7,403.9,225.7,405,224.3z"/>
	<path class="st1_adventure-76" d="M401.3,229.4l-0.2,0.1c-2.9,0.6-5.8-0.8-7-3.4c-0.4-1.1-0.6-2.2-0.5-3.4c0-1.3,0.3-12.7,5.6-17.1&#10;&#9;&#9;c1.8-1.5,4.2-2,6.4-1.6c2.9,0.5,5.3,2.6,6.2,5.4c1.7,5.5-2,13.2-5.1,16.5l0,0C405.3,227.5,403.4,228.8,401.3,229.4z M403.3,208.7&#10;&#9;&#9;c-0.4,0.1-0.8,0.3-1.2,0.5c-2.7,2.3-3.8,9.4-3.8,13.5c-0.1,0.5,0,1,0.2,1.5c0.4,0.6,1.1,0.8,1.8,0.6c1.2-0.4,2.3-1.1,3.1-2.1l0,0&#10;&#9;&#9;c2.3-2.3,4.9-8.4,3.9-11.9c-0.4-1.2-1.4-2.1-2.7-2.2C404.2,208.6,403.7,208.6,403.3,208.7L403.3,208.7z"/>
</g>
<g id="compass_adventure-76">
	<path class="st0_adventure-76 targetColor" d="M45.8,234.5c-11.7,5.5-16.7,19.4-11.3,31.1c5.5,11.7,19.4,16.7,31.1,11.3c11.7-5.5,16.7-19.4,11.3-31.1&#10;&#9;&#9;c0,0,0-0.1-0.1-0.1C71.3,234.1,57.5,229.2,45.8,234.5z M62,268.9c-7.3,3.4-15.9,0.3-19.4-6.9c-3.4-7.3-0.3-15.9,6.9-19.4&#10;&#9;&#9;c7.3-3.4,15.9-0.3,19.4,6.9c0,0,0,0,0,0C72.4,256.8,69.3,265.4,62,268.9C62,268.9,62,268.9,62,268.9z" style="fill: rgb(104, 225, 253);"/>
	<path class="st1_adventure-76" d="M55.8,281.1c-14.1-0.1-25.4-11.5-25.3-25.6c0-9.8,5.7-18.7,14.6-22.9l0,0c12.7-5.9,27.8-0.4,33.8,12.3&#10;&#9;&#9;s0.4,27.8-12.3,33.8C63.1,280.2,59.5,281,55.8,281.1L55.8,281.1z M55.8,234.3c-3.1,0-6.2,0.7-9.1,2l0,0&#10;&#9;&#9;c-10.7,5-15.3,17.7-10.3,28.3s17.7,15.3,28.3,10.3S80,257.3,75,246.6C71.5,239.1,64,234.3,55.8,234.3z"/>
	<path class="st1_adventure-76" d="M70.8,248.6c-1.9-4-5.2-7.1-9.3-8.6c-4.2-1.5-8.7-1.3-12.7,0.5c-5.7,2.7-9.5,8.6-9.5,14.9&#10;&#9;&#9;c0,9.2,7.4,16.6,16.5,16.7h0h0c2.4,0,4.8-0.5,6.9-1.5C71,266.8,74.6,256.9,70.8,248.6z M66.7,250.5c2.8,6,0.2,13.2-5.8,16&#10;&#9;&#9;c-6,2.8-13.2,0.2-16-5.8c-2.8-6-0.2-13.2,5.8-16c1.6-0.7,3.4-1.1,5.2-1.1C60.4,243.6,64.7,246.3,66.7,250.5z"/>
	<path class="st0_adventure-76 targetColor" d="M54.8,261.5l6.1-2.9c1.8-0.9,4-0.1,4.9,1.8c0,0,0,0,0,0.1l0,0l14.2,30.2l0,0l-12.7,6l0,0l-14.2-30.2&#10;&#9;&#9;c-0.9-1.8-0.2-4,1.6-4.9C54.7,261.5,54.8,261.5,54.8,261.5L54.8,261.5z" style="fill: rgb(104, 225, 253);"/>
	<path class="st1_adventure-76" d="M67.2,298.6c-0.2,0-0.4,0-0.6-0.1c-0.5-0.2-1-0.6-1.2-1.1l-12.8-27.2c-1.9-4.7,0.4-10,5.1-11.8&#10;&#9;&#9;c4.3-1.7,9.2,0.1,11.4,4.1l12.8,27.2c0.4,1,0,2.2-1,2.7l0,0l-12.7,6C67.9,298.6,67.6,298.6,67.2,298.6z M60.8,261.4&#10;&#9;&#9;c-2.7,0-5,2.2-5,4.9c0,0,0,0,0,0.1c0,0.7,0.1,1.5,0.4,2.1l12,25.4l9.1-4.3l-12-25.4C64.5,262.4,62.8,261.4,60.8,261.4L60.8,261.4z"/>
	<circle class="st0_adventure-76 targetColor" cx="104.5" cy="356.4" r="83.3" style="fill: rgb(104, 225, 253);"/>
	<path class="st1_adventure-76" d="M104.6,441.8c-47.1,0-85.4-38.1-85.4-85.3c0-47.1,38.1-85.4,85.3-85.4s85.4,38.1,85.4,85.3&#10;&#9;&#9;c0,33.1-19.1,63.2-49,77.3C129.5,438.9,117.1,441.7,104.6,441.8z M104.4,275c-44.9,0-81.3,36.5-81.3,81.4&#10;&#9;&#9;c0,44.9,36.5,81.3,81.4,81.3c44.9,0,81.3-36.5,81.3-81.4c0-11.9-2.6-23.7-7.7-34.6l0,0C164.5,293.2,135.9,275.1,104.4,275z"/>
	<circle class="st3_adventure-76" cx="104.5" cy="356.4" r="68.1"/>
	<path class="st1_adventure-76" d="M104.6,426.6c-38.7-0.1-70-31.4-69.9-70.1c0.1-38.7,31.4-70,70.1-69.9s70,31.4,69.9,70.1&#10;&#9;&#9;c0,27.1-15.7,51.7-40.2,63.3C125.1,424.3,114.9,426.6,104.6,426.6z M104.5,290.2c-36.5,0.1-66,29.9-65.8,66.4s29.9,66,66.4,65.8&#10;&#9;&#9;c36.5-0.1,66-29.9,65.8-66.4c-0.1-27.8-17.7-52.6-43.9-62C119.7,291.5,112.1,290.2,104.5,290.2L104.5,290.2z"/>
	<path class="st4_adventure-76" d="M116.2,368.7l-41,26.2c-1,0.6-2.3,0.3-2.9-0.7c0,0,0-0.1-0.1-0.1c-0.3-0.6-0.4-1.3-0.2-1.9l18.2-45&#10;&#9;&#9;c0.5-1.2,1.4-2.3,2.5-3l41-26.2c1-0.6,2.3-0.3,3,0.6c0.4,0.6,0.4,1.3,0.2,2l-18.2,45C118.2,366.9,117.3,367.9,116.2,368.7z"/>
	<path class="st1_adventure-76" d="M74.1,397.2c-2.3,0-4.2-1.9-4.2-4.3c0,0,0-0.1,0-0.1c0-0.5,0.1-1,0.3-1.5l18.2-45c0.6-1.6,1.8-3,3.2-4l41-26.2&#10;&#9;&#9;c2-1.2,4.6-0.7,5.9,1.3c0.7,1.2,0.9,2.6,0.3,3.9l-18.2,45c-0.7,1.6-1.8,3-3.3,4l-40.9,26.2C75.7,397,74.9,397.3,74.1,397.2z&#10;&#9;&#9; M134.9,319.6L134.9,319.6l-41.1,26.2c-0.8,0.5-1.4,1.2-1.7,2l-18.2,45c0,0.1,0,0.2,0.1,0.2h0.2l41-26.2l0,0c0.8-0.5,1.4-1.2,1.7-2&#10;&#9;&#9;l18.2-45v-0.2L134.9,319.6z"/>
	<circle class="st1_adventure-76" cx="104.5" cy="356.4" r="7.7"/>
	<path class="st1_adventure-76" d="M81,308.7c-0.8,0-1.5-0.5-1.8-1.2l-3.7-7.9c-0.5-1,0-2.2,1-2.7s2.2,0,2.7,1l3.7,7.9c0.5,1,0,2.2-1,2.7&#10;&#9;&#9;c0,0,0,0,0,0C81.6,308.6,81.3,308.6,81,308.7z"/>
	<path class="st1_adventure-76" d="M131.6,416.1c-0.8,0-1.5-0.5-1.8-1.2l-3.7-7.9c-0.4-1.1,0.1-2.3,1.2-2.7c0,0,0,0,0,0c1-0.4,2.1,0,2.6,1&#10;&#9;&#9;l3.7,7.9c0.4,1,0,2.2-1,2.7C132.2,416,131.9,416.1,131.6,416.1L131.6,416.1z"/>
	<path class="st1_adventure-76" d="M123.1,306.6c-0.2,0-0.4,0-0.6-0.1c-1-0.3-1.6-1.4-1.3-2.4c0-0.1,0-0.1,0.1-0.2l0,0l3-8.2&#10;&#9;&#9;c0.3-1.1,1.4-1.7,2.5-1.4c1.1,0.3,1.7,1.4,1.4,2.5c0,0.1-0.1,0.2-0.1,0.3l0,0l-3,8.3C124.6,306.2,123.9,306.6,123.1,306.6z"/>
	<path class="st1_adventure-76" d="M82.8,418.4c-0.2,0-0.4,0-0.6-0.1c-1-0.3-1.6-1.4-1.3-2.4c0,0,0-0.1,0-0.1l0,0l3-8.2c0.5-1,1.6-1.5,2.6-1&#10;&#9;&#9;c0.9,0.4,1.4,1.4,1.1,2.4l0,0l-3,8.2C84.4,417.9,83.7,418.4,82.8,418.4z"/>
	<path class="st1_adventure-76" d="M154.2,335c-1.1,0-2-0.9-2-2c0-0.8,0.5-1.5,1.2-1.8l7.9-3.7c0.9-0.6,2.2-0.4,2.8,0.5s0.4,2.2-0.5,2.8&#10;&#9;&#9;c-0.2,0.1-0.4,0.2-0.6,0.3l-7.9,3.8C154.8,334.9,154.5,335,154.2,335z"/>
	<path class="st1_adventure-76" d="M46.8,385.6c-1.1,0-2-0.9-2-2c0-0.8,0.5-1.5,1.2-1.8l7.9-3.8c1-0.5,2.2,0,2.7,1c0.5,1,0,2.2-1,2.7l-7.9,3.8&#10;&#9;&#9;C47.4,385.5,47.1,385.6,46.8,385.6z"/>
	<path class="st1_adventure-76" d="M168.7,381.4c-0.2,0-0.4,0-0.6-0.1l-8.8-3.2c-1.1-0.3-1.7-1.4-1.4-2.5c0.3-1.1,1.4-1.7,2.5-1.4&#10;&#9;&#9;c0.1,0,0.2,0.1,0.3,0.1l0,0l8.8,3.2c1,0.4,1.5,1.5,1.2,2.6C170.3,380.9,169.5,381.4,168.7,381.4L168.7,381.4z"/>
	<path class="st1_adventure-76" d="M49.2,338.5c-0.2,0-0.4,0-0.6-0.1l-8.8-3.2c-1-0.4-1.5-1.6-1.1-2.6c0,0,0-0.1,0-0.1c0.4-0.9,1.5-1.4,2.5-1.2&#10;&#9;&#9;l8.8,3.2c1,0.3,1.6,1.4,1.2,2.4c0,0,0,0.1,0,0.1C50.8,337.9,50,338.5,49.2,338.5z"/>
</g>
<g id="pin-4_adventure-76">
	<path class="st1_adventure-76" d="M294.3,191.3c-1,0-1.8-0.7-1.9-1.7l-4.1-32.7c-0.1-1,0.7-1.9,1.7-2c0.9-0.1,1.8,0.6,2,1.5l4.1,32.7&#10;&#9;&#9;c0.1,1-0.6,1.9-1.6,2.1l0,0L294.3,191.3z"/>
	<circle class="st3_adventure-76" cx="290.2" cy="156.8" r="11.6"/>
	<path class="st1_adventure-76" d="M290.2,170.3c-7.5,0-13.5-6-13.5-13.5s6-13.5,13.5-13.5c6.8,0,12.6,5.1,13.4,11.9l0,0&#10;&#9;&#9;c0.9,7.4-4.3,14.1-11.7,15.1H290.2L290.2,170.3z M290.2,147.1c-0.4,0-0.8,0-1.2,0.1c-5.3,0.7-9.1,5.5-8.5,10.8l0,0&#10;&#9;&#9;c0.7,5.4,5.5,9.2,10.9,8.5s9.2-5.5,8.5-10.9C299.3,150.7,295.1,147,290.2,147.1L290.2,147.1z"/>
</g>
<g id="pin-3_adventure-76">
	<path class="st1_adventure-76" d="M430.1,369.9c-0.9,0-1.7-0.6-1.9-1.5l-6.8-32.2c-0.2-1,0.5-2,1.5-2.2s2,0.5,2.2,1.5l6.9,32.2&#10;&#9;&#9;c0.2,1-0.4,2-1.4,2.2c0,0,0,0,0,0H430.1L430.1,369.9z"/>
	<circle class="st3_adventure-76" cx="423.3" cy="335.8" r="11.6"/>
	<path class="st1_adventure-76" d="M423.2,349.3c-7.5,0-13.5-6-13.6-13.5c0-7.5,6-13.5,13.5-13.6c7.5,0,13.5,6,13.6,13.5&#10;&#9;&#9;c0,6.4-4.4,11.9-10.7,13.3C425,349.2,424.1,349.3,423.2,349.3z M423.2,326.1c-0.7,0-1.3,0.1-2,0.2c-5.2,1.1-8.6,6.3-7.5,11.5&#10;&#9;&#9;c1.1,5.2,6.3,8.6,11.5,7.5s8.6-6.3,7.5-11.5c0,0,0,0,0,0l0,0C431.8,329.3,427.8,326,423.2,326.1z"/>
</g>
<g id="pin-2_adventure-76">
	<path class="st1_adventure-76" d="M307.6,355.9c-0.9,0-1.6-0.6-1.8-1.4l-8.2-31.9c-0.2-1,0.4-2.1,1.4-2.3c1-0.2,2.1,0.4,2.3,1.4l8.2,31.9&#10;&#9;&#9;c0.3,1-0.3,2-1.3,2.3c0,0-0.1,0-0.1,0H307.6z"/>
	<circle class="st5_adventure-76" cx="299.4" cy="322.1" r="11.6"/>
	<path class="st1_adventure-76" d="M299.4,335.7c-7.6,0.3-14.1-5.7-14.4-13.3c-0.3-7.6,5.7-14.1,13.3-14.4s14.1,5.7,14.4,13.3&#10;&#9;&#9;c0.2,6.4-3.9,12.2-10.1,13.9C301.5,335.5,300.5,335.6,299.4,335.7z M299.4,312.4c-0.8,0-1.6,0.1-2.4,0.3c-5.2,1.3-8.3,6.6-7,11.8&#10;&#9;&#9;c1.3,5.2,6.6,8.3,11.8,7c5.2-1.3,8.3-6.6,7-11.8l0,0C307.7,315.4,303.8,312.3,299.4,312.4z"/>
</g>
<g id="pin-1_adventure-76">
	<path class="st1_adventure-76" d="M135.4,142.9c-0.9,0-1.6-0.6-1.8-1.4l-7.6-32c-0.2-1,0.4-2,1.4-2.3c1-0.2,2,0.4,2.3,1.4l7.6,32&#10;&#9;&#9;c0.2,1-0.4,2-1.4,2.3H135.4L135.4,142.9z"/>
	<circle class="st5_adventure-76" cx="127.7" cy="109" r="11.6"/>
	<path class="st1_adventure-76" d="M127.7,122.5c-7.4,0-13.5-6.1-13.4-13.5s6.1-13.5,13.5-13.4c6.3,0,11.7,4.4,13.1,10.5&#10;&#9;&#9;c1.7,7.2-2.8,14.5-10,16.2c0,0,0,0,0,0C129.8,122.4,128.7,122.5,127.7,122.5z M127.8,99.3c-0.8,0-1.5,0.1-2.3,0.3&#10;&#9;&#9;c-5.1,1.3-8.1,6.5-6.8,11.5s6.5,8.1,11.5,6.8c5.1-1.3,8.1-6.5,6.8-11.5C135.9,102.2,132.1,99.2,127.8,99.3z"/>
</g>
<g id="character_adventure-76">
	<path class="st3_adventure-76" d="M487.2,160.6c0,32.9-19.4,62.8-49.5,76.2c-8.1,3.6-16.8,5.9-25.6,6.8c-2.7,0.3-5.5,0.4-8.3,0.4&#10;&#9;&#9;c-5.9,0-11.9-0.6-17.7-1.9c-8.6-1.9-16.9-5.1-24.5-9.5c-39.7-23.3-53-74.3-29.8-114.1c0.4-0.6,0.7-1.2,1.1-1.8&#10;&#9;&#9;c0.3-0.5,0.6-0.9,0.9-1.4l0.9-1.3c2.9-4.3,6.3-8.4,10-12.1c0.4-0.4,0.7-0.8,1.1-1.1l1.1-1.1c4.5-4.2,9.5-7.9,14.8-11l1.5-0.8&#10;&#9;&#9;l1.5-0.8c1-0.5,2-1,3-1.5l1.5-0.7c0.5-0.2,1-0.5,1.5-0.7c1.1-0.5,2.2-0.9,3.4-1.4l0.8-0.3l1.5-0.6c0.5-0.2,1-0.3,1.5-0.5l0.4-0.1&#10;&#9;&#9;c1.6-0.5,3.2-1,4.9-1.4c1.3-0.3,2.6-0.6,4-0.9c1.1-0.2,2.2-0.4,3.3-0.6c4.3-0.7,8.6-1,12.9-1h0.2c1.7,0,3.4,0.1,5.1,0.2&#10;&#9;&#9;c4.3,0.2,8.5,0.8,12.6,1.7c1.3,0.3,2.6,0.6,3.9,0.9c0.5,0.1,1,0.3,1.5,0.4l0,0c0.5,0.1,1,0.3,1.5,0.4c0.8,0.2,1.5,0.5,2.3,0.7&#10;&#9;&#9;l0.5,0.2c0.6,0.2,1.1,0.4,1.6,0.6s1,0.4,1.6,0.6l0.5,0.2c0.3,0.1,0.7,0.3,1,0.4l0,0l0.2,0.1c1,0.4,1.9,0.8,2.8,1.2&#10;&#9;&#9;c1.2,0.6,2.4,1.1,3.5,1.7c0.5,0.3,1.1,0.6,1.6,0.9c0.5,0.3,1.1,0.6,1.6,0.9c2,1.2,3.9,2.4,5.8,3.7c0.6,0.4,1.3,0.9,1.9,1.3&#10;&#9;&#9;c0.3,0.2,0.6,0.4,0.8,0.6C475,109.9,487.2,134.5,487.2,160.6z"/>
	<path class="st1_adventure-76" d="M404,245.9c-47.1,0-85.4-38.1-85.4-85.3s38.1-85.4,85.3-85.4c47.1,0,85.4,38.1,85.4,85.3&#10;&#9;&#9;c0,33.1-19.1,63.2-49,77.3C428.9,243.1,416.5,245.9,404,245.9z M403.8,79.1c-44.9,0-81.3,36.4-81.3,81.3s36.4,81.3,81.3,81.3&#10;&#9;&#9;s81.3-36.4,81.3-81.3c0-12-2.6-23.8-7.7-34.6l0,0C463.9,97.4,435.3,79.2,403.8,79.1z"/>
	<path class="st6_adventure-76" d="M313.4,71.8c1.4-0.9,3.3,3.1,3.3,3.1c0.4-0.8,0.9-1.5,1.5-2.2c0.7-0.6,3.4,2.3,4.5,3.7s3.1,8.3,3.1,8.3&#10;&#9;&#9;l7.8,6.8c-4,2.8-7.9,5.7-11.6,8.8l-6-7.1c0,0-8.4-6.6-9.2-11.3S312.1,72.7,313.4,71.8z"/>
	<path class="st1_adventure-76" d="M320.8,101.2l-5.9-7c-1.4-1.1-8.8-7.2-9.7-12.1c-1-5.9,6.5-11,7.3-11.6l0,0c0.6-0.4,1.3-0.5,1.9-0.3&#10;&#9;&#9;c0.9,0.4,1.8,1,2.3,1.8c0.1-0.2,0.3-0.3,0.5-0.5c0.4-0.4,1-0.5,1.5-0.5c2.1,0.2,5.1,4.3,5.3,4.4c1,1.4,2.5,6.3,3.2,8.3l7.4,6.5&#10;&#9;&#9;c0.7,0.6,0.7,1.6,0.2,2.2c-0.1,0.1-0.2,0.2-0.3,0.3c-3.5,2.5-7.6,5.4-11.5,8.7C322.3,102,321.3,101.9,320.8,101.2L320.8,101.2z&#10;&#9;&#9; M324.8,85.8c-0.2-0.2-0.4-0.5-0.5-0.7c-0.9-3.2-2.3-7.1-2.8-7.8c-0.8-1-1.7-2-2.7-2.8c-0.3,0.4-0.5,0.8-0.7,1.2&#10;&#9;&#9;c-0.4,0.8-1.4,1.1-2.1,0.7c-0.3-0.1-0.5-0.4-0.7-0.7c-0.4-0.8-0.9-1.5-1.5-2.2c-2.3,1.7-6,5.2-5.5,8.2s5.6,7.9,8.6,10.3&#10;&#9;&#9;c0.1,0.1,0.2,0.1,0.2,0.2l5,5.9c3-2.5,6.1-4.7,8.9-6.7L324.8,85.8z"/>
	<path class="st6_adventure-76" d="M318.3,72.6c0,0-6.9,8.3-6,9.9s4.3,4.5,7.2-1.7L318.3,72.6z"/>
	<path class="st1_adventure-76" d="M310.9,83.3c-0.4-0.8-1.4-2.5,6.2-11.6c0.6-0.7,1.6-0.7,2.2-0.2c0.6,0.6,0.7,1.5,0.2,2.2&#10;&#9;&#9;c-2.5,3.1-5.3,7-5.7,8.4c0.4,0.6,1,0.9,1.6,1c0.8,0,1.8-1.1,2.6-2.9c0.4-0.8,1.3-1.1,2.1-0.8c0.8,0.4,1.1,1.3,0.8,2.1l0,0&#10;&#9;&#9;c-1.4,3-3.2,4.6-5.3,4.7h-0.1C313.6,86,311.8,84.9,310.9,83.3z M313.8,82.2L313.8,82.2z"/>
	<path class="st1_adventure-76" d="M420.4,279.9L420.4,279.9z M420.4,279.9c-0.1-0.2-0.1-0.3-0.1-0.5C420.2,279.6,420.3,279.7,420.4,279.9&#10;&#9;&#9;L420.4,279.9z"/>
	<path class="st0_adventure-76 targetColor" d="M331.2,87c10.6,10.3,23.3,21.2,26.5,23.3c5.1,1.2,16.5-0.6,33.1-3.3c5.5-0.9,10.6,2.8,11.6,8.3&#10;&#9;&#9;s-2.8,10.6-8.3,11.6c-16,2.7-34.9,6.2-44.5,1.9c-7.4-3.3-20.7-18.5-29.5-29.9C323.3,95.2,328.1,90.6,331.2,87z" style="fill: rgb(104, 225, 253);"/>
	<path class="st1_adventure-76" d="M349.1,130.2c-7.7-3.4-21-18.5-30.1-30.4c-0.5-0.6-0.5-1.4,0-2c1.8-2.1,4.1-4.5,6.3-6.9&#10;&#9;&#9;c1.7-1.8,3.3-3.4,4.6-4.9c0.3-0.3,0.7-0.5,1.1-0.5c0.4,0,0.9,0.1,1.2,0.4c10.5,10.2,22.6,20.7,26.1,22.9c5,1,16.6-0.8,32.3-3.4&#10;&#9;&#9;c6.3-1.2,12.4,3,13.5,9.3c1.2,6.3-3,12.4-9.3,13.5c-0.1,0-0.3,0-0.4,0.1l-2.6,0.4c-10,1.7-20.8,3.5-29.7,3.5&#10;&#9;&#9;C357,132.3,352.5,131.7,349.1,130.2z M391.1,108.6c-17.4,2.9-28.3,4.6-33.8,3.3c-0.2,0-0.3-0.1-0.5-0.2&#10;&#9;&#9;c-3.5-2.2-15.7-12.9-25.6-22.4c-1.1,1.2-2.3,2.5-3.6,3.8c-1.9,2-3.8,4-5.4,5.8c9.5,12.3,21.6,25.6,28.1,28.5&#10;&#9;&#9;c8.6,3.8,25.8,0.9,40.9-1.6l2.6-0.4c4.6-0.8,7.7-5.2,6.9-9.8c-0.7-4.1-4.2-7-8.3-7C392.1,108.4,391.6,108.5,391.1,108.6&#10;&#9;&#9;L391.1,108.6z"/>
	
		<rect x="407.6" y="100.1" transform="matrix(0.9989 -4.693211e-02 4.693211e-02 0.9989 -5.95 20.3346)" class="st4_adventure-76" width="45" height="73.6"/>
	<path class="st1_adventure-76" d="M407.8,174.8l-3.5-73.5c0-0.9,0.6-1.6,1.5-1.6c0,0,0,0,0,0l44.9-2.1c0.8-0.1,1.6,0.6,1.6,1.4c0,0,0,0,0,0.1&#10;&#9;&#9;l3.5,73.5c0,0.9-0.6,1.6-1.5,1.6c0,0,0,0,0,0l-44.9,2.1h-0.1C408.5,176.3,407.8,175.6,407.8,174.8z M449.3,100.7l-41.8,2l3.3,70.4&#10;&#9;&#9;l41.8-2L449.3,100.7z"/>
	<path class="st4_adventure-76" d="M455.6,172.5l-2.8,0.1c-4.2,0.2-7.8-3.1-8-7.3l-2.7-58.3c-0.2-4.2,3.1-7.8,7.3-8l2.8-0.1&#10;&#9;&#9;c4.2-0.2,7.8,3.1,8,7.3l2.7,58.3C463.1,168.7,459.8,172.3,455.6,172.5z"/>
	<path class="st1_adventure-76" d="M446.7,171.4c-2.1-1.9-3.3-4.5-3.5-7.3l-2.6-55.5c-0.3-5.8,4.2-10.8,10.1-11.1c5.8-0.3,10.8,4.2,11.1,10.1&#10;&#9;&#9;l2.6,55.5c0.3,5.8-4.2,10.8-10.1,11.1h-0.5C451.2,174.1,448.7,173.2,446.7,171.4z M450.9,100.6c-4.1,0.2-7.3,3.7-7.1,7.8l2.6,55.6&#10;&#9;&#9;c0.2,4.1,3.7,7.3,7.8,7.1c0,0,0,0,0,0l0,0c4.1-0.2,7.3-3.7,7.1-7.8l-2.6-55.6c-0.2-4-3.5-7.1-7.4-7.1L450.9,100.6z"/>
	
		<rect x="399.3" y="82.3" transform="matrix(0.9989 -4.693211e-02 4.693211e-02 0.9989 -3.831 19.8975)" class="st5_adventure-76" width="45" height="18.5"/>
	<path class="st1_adventure-76" d="M398.2,101.9l-0.9-18.5c0-0.4,0.1-0.8,0.4-1.1c0.3-0.3,0.7-0.5,1.1-0.5l44.9-2.1c0.9-0.1,1.6,0.6,1.6,1.5&#10;&#9;&#9;c0,0,0,0,0,0l0.9,18.4c0,0.4-0.1,0.8-0.4,1.1c-0.3,0.3-0.7,0.5-1.1,0.5l-44.9,2.1h-0.1C398.9,103.4,398.3,102.7,398.2,101.9z&#10;&#9;&#9; M442.3,82.9l-41.8,2l0.7,15.3l41.8-2L442.3,82.9z"/>
	<path class="st5_adventure-76" d="M445.5,99.6l-1.5,0.1c-4.6,0.2-8.4-3.3-8.6-7.9l-0.1-2c-0.2-4.6,3.3-8.4,7.9-8.6l1.5-0.1&#10;&#9;&#9;c4.6-0.2,8.4,3.3,8.6,7.9l0.1,2C453.5,95.5,450,99.4,445.5,99.6z"/>
	<path class="st1_adventure-76" d="M437.2,98.5c-2.1-1.9-3.3-4.5-3.5-7.3v-0.5c-0.3-5.8,4.2-10.8,10.1-11.1c5.8-0.3,10.8,4.2,11.1,10.1v0.5&#10;&#9;&#9;c0.3,5.8-4.2,10.8-10.1,11.1h-0.5C441.6,101.3,439.1,100.3,437.2,98.5z M443.9,82.8c-4.1,0.2-7.3,3.7-7.1,7.8V91&#10;&#9;&#9;c0.2,4.1,3.7,7.3,7.8,7.1l0,0c4.1-0.2,7.3-3.7,7.1-7.8v-0.5c-0.2-4-3.5-7.1-7.4-7.1L443.9,82.8z"/>
	<path class="st1_adventure-76" d="M437.8,236.7c-8.1,3.6-16.8,5.9-25.6,6.8l-7.5-45.8l-4.2-25.7l-0.3-1.6l-0.2-1.6l-0.9-5.6l-0.5-3.1l-1.3-8&#10;&#9;&#9;l3.2,0.2l6.3,0.4l1.6,0.1l1.1,0.1h0.5l1.5,0.1l1.9,0.1l17.2,1.1l0.9,10.1l0.1,1.6l0.1,1.6l0.4,4.4l0.1,1.6l0.1,1.6L437.8,236.7z"/>
	<path class="st1_adventure-76" d="M418.9,163.7l-1.1,2.7l-0.7,1.7l-0.7,1.7l-1.3,3l-0.7,1.6l-0.7,1.6l-9,21.7L386.2,242&#10;&#9;&#9;c-8.6-1.9-16.9-5.1-24.5-9.5l20.6-61.8l1.1-3.4l0.6-1.8l0.5-1.6v-0.1l0.5-1.6l5.3-15.9l10,6.1l5.9,3.6l0.5,0.3l0.9,0.5l0.8,0.5&#10;&#9;&#9;l0.6,0.4l1,0.6L418.9,163.7z"/>
	<path class="st0_adventure-76 targetColor" d="M435.7,165.6l-51.4,7.2l0,0l-7.8-56c-0.6-4.3,2.4-8.3,6.7-8.9l35.9-5c4.3-0.6,8.3,2.4,8.9,6.7L435.7,165.6&#10;&#9;&#9;L435.7,165.6z" style="fill: rgb(104, 225, 253);"/>
	<path class="st1_adventure-76" d="M382.7,172.9l-7.2-51.6c-1.1-7.6,4.2-14.6,11.8-15.7l27-3.8c7.6-1.1,14.6,4.2,15.7,11.8c0,0,0,0,0,0l7.2,51.6&#10;&#9;&#9;c0.1,0.9-0.5,1.7-1.3,1.8c0,0,0,0,0,0l-51.4,7.2h-0.2C383.5,174.3,382.8,173.7,382.7,172.9z M426.9,114.2c-0.8-5.9-6.2-10-12.1-9.2&#10;&#9;&#9;c0,0,0,0,0,0l-27,3.8c-5.9,0.8-10,6.2-9.2,12.1c0,0,0,0.1,0,0.1l7,50l48.3-6.8L426.9,114.2z"/>
	<path class="st1_adventure-76" d="M378.5,134c0.1,0,0.2,0,0.3,0c1.2-0.2,2-1.2,2-2.4c0.1-2.9,3.3-21.6,14.1-24.9c1.3-0.3,2-1.6,1.7-2.9&#10;&#9;&#9;s-1.6-2-2.9-1.7c-0.1,0-0.2,0-0.2,0.1c-6.2,1.9-11.2,7.5-14.5,16.3c-2.3,6.2-3.1,12.5-3,13.5C376.3,133.2,377.3,134,378.5,134z"/>
	<path class="st1_adventure-76" d="M439.2,156.6c1.3,0,2.4-1,2.4-2.3c0-1.3-1-2.4-2.3-2.4c-6.1-0.3-10.9-5.6-13.9-10.1&#10;&#9;&#9;c-6.8-10.2-9.5-23.7-8.1-27.8c0.7-2.2,2.3-4.1,4.4-5.1c5.2-2.3,12.6,0.6,12.7,0.6c1.2,0.5,2.6-0.1,3.1-1.3c0.5-1.2-0.1-2.6-1.3-3.1&#10;&#9;&#9;c-0.4-0.2-9.3-3.7-16.4-0.5c-3.3,1.5-5.9,4.3-7,7.8c-2.4,6.5,1.7,21.8,8.6,32.1c5.1,7.7,11.2,11.9,17.6,12.2H439.2z"/>
	<path class="st7_adventure-76" d="M399.4,30.7c-0.8-0.1-1.6-0.2-2.4-0.3c-5.2-0.5-10.8-0.4-15.3,2.3c0.2-1.4,0.1-2.8-0.2-4.2&#10;&#9;&#9;c0-0.3-0.2-0.6-0.5-0.8c-0.4-0.2-0.9,0.1-1.2,0.4c-2.2,1.9-4.1,4.1-5.6,6.5c0-2.2-0.4-4.4-1.1-6.5c-3.2,1.3-5.6,4.1-6.5,7.5&#10;&#9;&#9;c-0.3-0.9-0.8-1.7-1.5-2.4c-0.2-0.2-0.4-0.4-0.7-0.5c-0.3,0-0.5,0.1-0.7,0.3c-5.1,4-7.2,10.8-5.1,17c1.5,4.1,4.6,7.2,7.5,10.4&#10;&#9;&#9;c1.5,1.5,2.9,3.1,4.1,4.8c1.1,1.9,0.7,3.9,1.1,6s1.1,4,1.6,6c0.3,1.1,3.2,12,3.6,12l53.7-4c1.2-0.1,0.3-8.3,0.2-9&#10;&#9;&#9;c-0.1-4.4,2.4-9.1,3-13.6c0.8-4.5,0.3-9.2-1.3-13.5c-1.1-2.6-2.9-5.2-5.6-6c-0.8-0.2-1.7-0.4-2.5-0.7c-1-0.6-1.8-1.3-2.6-2.1&#10;&#9;&#9;C415.7,34.5,407.6,31.8,399.4,30.7z"/>
	<path class="st1_adventure-76" d="M376.2,90.8c-1.2,0-1.5-0.9-4.3-11.6c-0.2-0.8-0.4-1.3-0.4-1.5l-0.4-1.3c-0.5-1.6-0.9-3.2-1.3-4.8&#10;&#9;&#9;c-0.2-0.8-0.3-1.7-0.3-2.5c0-1.1-0.2-2.1-0.7-3.1c-0.9-1.3-1.8-2.4-3-3.5c-0.3-0.3-0.7-0.7-1-1l-0.6-0.6c-2.8-3-5.8-6.2-7.2-10.3&#10;&#9;&#9;c-2.3-6.8,0-14.3,5.7-18.7c0.5-0.4,1.1-0.6,1.7-0.6c0.7,0.1,1.3,0.4,1.7,1l0.1,0.1c1.4-2.5,3.6-4.5,6.2-5.5c0.4-0.2,0.8-0.2,1.2,0&#10;&#9;&#9;c0.4,0.2,0.7,0.5,0.8,0.9c0.3,1,0.6,2,0.8,3c1.1-1.3,2.3-2.5,3.6-3.6c0.7-0.8,1.9-1,2.8-0.6c0.7,0.4,1.2,1.1,1.3,1.8&#10;&#9;&#9;c0.2,0.7,0.3,1.4,0.3,2.1c4.6-1.9,9.8-1.8,13.9-1.4c0.8,0.1,1.7,0.2,2.5,0.3l0,0c9.9,1.3,17.6,4.7,22.9,10l0.3,0.3&#10;&#9;&#9;c0.5,0.6,1.1,1.1,1.8,1.5c0.4,0.2,0.8,0.3,1.2,0.4c0.4,0.1,0.7,0.2,1.1,0.3c2.8,0.9,5.1,3.3,6.5,6.9c1.7,4.6,2.2,9.5,1.4,14.3&#10;&#9;&#9;c-0.3,2-0.8,4-1.5,5.9c-0.9,2.4-1.4,4.9-1.5,7.4c0,0.1,0,0.4,0.1,0.8c0.5,5.9,0.4,8.1-0.5,9.1c-0.3,0.4-0.8,0.6-1.2,0.7l-53.7,4&#10;&#9;&#9;l0,0L376.2,90.8z M364.2,34.5c-4.4,3.6-6.1,9.6-4.3,15c1.3,3.5,4,6.4,6.6,9.2l0.6,0.6l1,1c1.3,1.2,2.4,2.6,3.4,4.1&#10;&#9;&#9;c0.7,1.4,1.1,2.9,1.1,4.4c0,0.7,0.1,1.4,0.2,2.1c0.3,1.5,0.8,3.1,1.2,4.6l0.4,1.4c0,0.2,0.2,0.8,0.4,1.5c0.5,1.9,2,7.2,2.6,9.3&#10;&#9;&#9;l51.8-3.8c0.1-2.2,0-4.4-0.2-6.6c0-0.5-0.1-0.8-0.1-1c0.1-2.8,0.6-5.6,1.6-8.3c0.6-1.8,1.1-3.6,1.4-5.5c0.7-4.3,0.3-8.7-1.2-12.7&#10;&#9;&#9;c-0.6-1.6-2.1-4.3-4.6-5.2c-0.3-0.1-0.6-0.2-0.8-0.2c-0.6-0.1-1.2-0.3-1.8-0.6c-1-0.5-1.9-1.3-2.7-2.1l-0.3-0.3&#10;&#9;&#9;c-4.8-4.8-12-7.9-21.2-9.2l0,0c-0.8-0.1-1.6-0.2-2.4-0.3c-4.4-0.4-10-0.6-14.4,2.1c-0.5,0.3-1.1,0.3-1.6,0&#10;&#9;&#9;c-0.5-0.3-0.7-0.9-0.7-1.4c0.1-0.9,0.1-1.9-0.1-2.9c-1.9,1.7-3.5,3.6-4.8,5.7c-0.4,0.7-1.4,0.9-2.1,0.5c-0.4-0.3-0.7-0.8-0.7-1.3&#10;&#9;&#9;c0-1.5-0.2-3-0.6-4.4c-2,1.3-3.5,3.3-4,5.7c-0.2,0.6-0.7,1.1-1.4,1.2c-0.7,0-1.3-0.4-1.5-1C364.9,35.6,364.6,35,364.2,34.5z"/>
	<path class="st6_adventure-76" d="M401.5,119.6l-4.6,0.3c-1.5,0.1-2.8-1-2.9-2.5v0l-0.5-7.3l0,0l10-0.7l0,0l0.5,7.3&#10;&#9;&#9;C404.1,118.2,403,119.4,401.5,119.6L401.5,119.6L401.5,119.6z"/>
	<path class="st1_adventure-76" d="M394.3,120c-1.2-1-1.9-2.5-2-4l-0.4-5.7c0-0.4,0.1-0.8,0.4-1.1c0.3-0.3,0.7-0.5,1.1-0.5l10-0.7&#10;&#9;&#9;c0.4,0,0.8,0.1,1.1,0.4c0.3,0.3,0.5,0.7,0.5,1.1l0.4,5.7c0.2,3.2-2.2,6-5.4,6.2l-1.5,0.1h-0.4C396.7,121.4,395.4,120.9,394.3,120z&#10;&#9;&#9; M399.8,118.2c1.5-0.1,2.6-1.4,2.5-2.9l-0.3-4.2l-6.8,0.5l0.3,4.2c0.1,1.5,1.4,2.6,2.9,2.5L399.8,118.2z"/>
	
		<ellipse transform="matrix(0.9973 -7.376038e-02 7.376038e-02 0.9973 -5.3998 27.5884)" class="st6_adventure-76" cx="370.8" cy="86.9" rx="7.5" ry="8.4"/>
	<path class="st1_adventure-76" d="M364.9,94.3c-1.8-1.8-2.9-4.2-3.1-6.8c-0.4-5.5,3.3-10.2,8.3-10.6c2.5-0.2,4.9,0.7,6.7,2.5&#10;&#9;&#9;c3.7,3.7,4.2,9.6,1,13.9c-1.5,2-3.8,3.2-6.2,3.4c-0.2,0-0.4,0-0.6,0C368.6,96.8,366.5,95.9,364.9,94.3z M370.3,80.1&#10;&#9;&#9;c-3.2,0.2-5.7,3.5-5.4,7.2l0,0c0.1,1.8,0.9,3.4,2.1,4.7c2.1,2.1,5.5,2.2,7.6,0.1c0.2-0.2,0.4-0.5,0.6-0.7c1.1-1.4,1.6-3.2,1.4-5&#10;&#9;&#9;c-0.1-1.8-0.9-3.5-2.1-4.7c-1-1-2.4-1.6-3.9-1.6L370.3,80.1z"/>
	<path class="st6_adventure-76" d="M398.9,112.1c16.4-1.2,29.5-22.5,28.3-38.6l-5.7,2.5l-4-19.5c0,0-19.2,1.3-27.9,1.9&#10;&#9;&#9;c-15.9,1.1-22.4-2.6-22.4-2.6l2.2,29.2C370.6,101.1,382.5,113.3,398.9,112.1z"/>
	<path class="st1_adventure-76" d="M377.4,106.2c-5.7-5.6-9.1-13.1-9.5-21.1l-2.2-29.1c0-0.6,0.2-1.1,0.7-1.5c0.5-0.3,1.1-0.3,1.6,0&#10;&#9;&#9;c0.1,0,6.3,3.5,21.5,2.4c8.6-0.6,27.9-1.9,27.9-1.9c0.8,0,1.5,0.5,1.6,1.3l3.6,17.6l3.9-1.7c0.5-0.2,1-0.2,1.4,0.1&#10;&#9;&#9;c0.4,0.3,0.7,0.7,0.8,1.2c1.2,16.7-12.5,39-29.8,40.3l0,0c-0.8,0.1-1.5,0.1-2.3,0.1C389.5,113.9,382.6,111.1,377.4,106.2z&#10;&#9;&#9; M398.8,110.5c12.5-0.9,27-17.1,27-34.7l-3.6,1.6c-0.8,0.4-1.7,0-2.1-0.8c0-0.1-0.1-0.2-0.1-0.3l-3.7-18.1&#10;&#9;&#9;c-4.5,0.3-19.2,1.3-26.5,1.8c-10.8,0.8-17.5-0.7-20.8-1.8l2,26.6c0.4,7.2,3.4,14,8.6,19.1C384.8,108.8,391.8,111.2,398.8,110.5&#10;&#9;&#9;L398.8,110.5z"/>
	
		<ellipse transform="matrix(0.9976 -6.982913e-02 6.982913e-02 0.9976 -4.4953 28.622)" class="st1_adventure-76" cx="407.1" cy="78.6" rx="2.7" ry="2.7"/>
	<circle class="st1_adventure-76" cx="380.8" cy="79.6" r="2.7"/>
	<path class="st1_adventure-76" d="M389.2,88c1.2,0,2.5-0.2,3.7-0.5c0.8-0.4,1.2-1.3,0.8-2.1c-0.3-0.6-0.9-1-1.6-0.9c-1,0.3-2.1,0.4-3.1,0.4&#10;&#9;&#9;c0.4-1.9,1-3.8,1.8-5.6c0.4-0.8,0-1.7-0.8-2.1c-0.8-0.4-1.7,0-2.1,0.8c-1.3,3-2.6,7-1.7,8.7c0.3,0.6,0.9,1,1.5,1.1&#10;&#9;&#9;C388.2,88,388.7,88,389.2,88z"/>
	<path class="st1_adventure-76" d="M398.6,74.5c0.2,0,0.3,0,0.5,0l12.8-1.9c1.7-0.2,3-1.7,2.8-3.5s-1.7-3-3.5-2.8c-0.1,0-0.2,0-0.3,0l-12.8,1.9&#10;&#9;&#9;c-1.7,0.3-2.9,1.9-2.6,3.6C395.8,73.4,397.1,74.5,398.6,74.5L398.6,74.5z"/>
	<path class="st1_adventure-76" d="M387.2,74.1c1.7,0,3.1-1.5,3.1-3.2c0-1.6-1.3-2.9-2.9-3.1L374.5,67c-1.7-0.1-3.2,1.2-3.3,3&#10;&#9;&#9;c-0.1,1.7,1.2,3.2,3,3.3l12.9,0.7L387.2,74.1z"/>
	<path class="st6_adventure-76" d="M421.5,76c0,0,6.8-5.5,11.1,0.6S434,93.8,422,91.5L421.5,76z"/>
	<path class="st1_adventure-76" d="M425,93.3c4.1,0,7.4-1.6,9.4-4.7c2.4-4,2.3-9.1-0.5-13c-1.2-1.9-3.2-3.1-5.4-3.5c-4.1-0.6-7.8,2.4-8,2.5&#10;&#9;&#9;c-0.7,0.6-0.8,1.5-0.2,2.2c0.6,0.7,1.5,0.8,2.2,0.2c0.1,0,2.9-2.2,5.6-1.9c1.3,0.2,2.5,1,3.2,2.2c2,2.8,2.1,6.5,0.4,9.5&#10;&#9;&#9;c-1.7,2.7-5.1,3.8-9.4,2.9c-0.9-0.2-1.7,0.4-1.8,1.2s0.4,1.7,1.2,1.8l0,0C422.8,93.2,423.9,93.4,425,93.3z"/>
	<path class="st1_adventure-76" d="M393.1,100.6L393.1,100.6c5.1-0.2,15.1-3.2,15.9-13.4c0.1-0.9-0.6-1.6-1.4-1.7c-0.9-0.1-1.6,0.6-1.7,1.4&#10;&#9;&#9;c-0.9,10-12.3,10.5-12.8,10.5c-0.9,0-1.6,0.7-1.5,1.6C391.5,99.9,392.2,100.6,393.1,100.6z"/>
	<path class="st0_adventure-76 targetColor" d="M450.3,182.3c-0.6-12-2.2-23.9-4.7-35.6c-2.9-4.5-12.2-11.1-26.1-20.7c-4.6-3.2-5.7-9.4-2.5-14s9.4-5.7,14-2.5&#10;&#9;&#9;c13.4,9.3,29.3,19.9,33.2,29.6c3,7.5,2,27.7,0.2,42C459.7,181.6,455,182,450.3,182.3z" style="fill: rgb(104, 225, 253);"/>
	<path class="st1_adventure-76" d="M466,181.2c-0.1,0.7-0.7,1.3-1.4,1.4c-4.4,0.5-9,0.9-14.1,1.3c-0.9,0.1-1.6-0.6-1.7-1.4c0,0,0-0.1,0-0.1&#10;&#9;&#9;c-0.6-11.8-2.1-23.5-4.6-35.1c-2.9-4.2-12-10.7-25.5-20.1c-5.3-3.7-6.6-10.9-2.9-16.2s10.9-6.6,16.2-2.9l2.2,1.5&#10;&#9;&#9;c13,9,27.7,19.2,31.6,28.8c2.7,6.7,2.3,22.4,1,36.1C466.5,176.9,466.2,179.1,466,181.2z M416.8,118.5c0.2,2.5,1.6,4.7,3.6,6.1&#10;&#9;&#9;c14.5,10,23.5,16.5,26.5,21.2c0.1,0.1,0.2,0.3,0.2,0.5c2.5,11.3,4,22.8,4.7,34.3c4-0.3,7.7-0.6,11.2-1c1.8-15.4,2.4-33.4-0.3-40&#10;&#9;&#9;c-3.5-8.8-17.8-18.7-30.5-27.4l-2.2-1.5c-3.9-2.7-9.1-1.7-11.8,2.2c-0.8,1.2-1.3,2.6-1.5,4C416.7,117.4,416.7,118,416.8,118.5z"/>
	<path class="st6_adventure-76" d="M446.8,194.3c0,0-3.4-1.4-3-3.1s6.6-5.3,6.6-5.3c0-0.5,0-3.1-0.1-3.6c0,0,13.3-1.3,14.1-1.3&#10;&#9;&#9;c0,0-0.6,4.4-0.8,5.6c0,0,1.1,14.9-1.2,17.5s-14,1-15.9-0.5S446.8,194.3,446.8,194.3z"/>
	<path class="st1_adventure-76" d="M463.7,205.2c-0.9,1.1-2.7,1.7-5.3,1.9c-4.2,0.3-11-0.7-12.8-2.3c-2-1.7-1.3-6.7-0.6-9.7&#10;&#9;&#9;c-1.3-0.8-3.1-2.3-2.8-4.2c0.4-1.8,3.6-4.1,6.6-5.9c0-0.4,0-1,0-1.4v-1.3c0-0.8,0.6-1.5,1.4-1.6c3.1-0.3,13.5-1.3,14.3-1.3&#10;&#9;&#9;c0.5,0,0.9,0.2,1.2,0.5c0.3,0.3,0.4,0.8,0.4,1.2c0,0-0.5,4.1-0.7,5.5c0.3,4.2,0.4,8.4,0.1,12.6C465,202,464.5,204.2,463.7,205.2z&#10;&#9;&#9; M462.1,186.5c0.1-0.7,0.3-2.4,0.5-3.7c-2.5,0.2-7.1,0.6-10.7,1c0,0.9,0,1.9,0,2.2c0,0.6-0.3,1.1-0.8,1.4c-2.1,1.1-4.1,2.5-5.8,4.2&#10;&#9;&#9;c0.6,0.6,1.3,1.1,2,1.4l0,0c0.7,0.3,1.1,1.1,0.9,1.8c-0.8,3.4-1.1,7.1-0.6,7.8c1.5,1.2,12.2,2.4,13.6,0.7c1.1-1.3,1.3-9.5,0.8-16.4&#10;&#9;&#9;c0-0.1,0-0.2,0-0.3C462,186.6,462.1,186.5,462.1,186.5L462.1,186.5z"/>
</g>
</svg>