<svg version="1.1" id="Layer_1" xmlns="http://www.w3.org/2000/svg" xmlns:xlink="http://www.w3.org/1999/xlink" x="0px" y="0px" viewBox="0 0 500 500" style="width: 145px;" xml:space="preserve" data-imageid="road-trip-56" imageName="Road Trip" class="illustrations_image">
<style type="text/css">
	.st0_road-trip-56{fill:#A2C609;}
	.st1_road-trip-56{fill:#DDDDDD;}
	.st2_road-trip-56{fill:#FFDD93;}
	.st3_road-trip-56{fill:#D4F5FF;}
	.st4_road-trip-56{fill:url(#SVGID_1_);}
	.st5_road-trip-56{fill:#68E1FD;}
	.st6_road-trip-56{opacity:0.33;fill:#0B096E;enable-background:new    ;}
	.st7_road-trip-56{fill:#0B096E;}
	.st8_road-trip-56{opacity:0.5;fill:#0B096E;enable-background:new    ;}
	.st9_road-trip-56{opacity:0.2;fill:#BC532A;enable-background:new    ;}
	.st10_road-trip-56{fill:#BC532A;}
	.st11_road-trip-56{opacity:0.5;fill:#BC532A;enable-background:new    ;}
	.st12_road-trip-56{fill:#F77750;}
	.st13_road-trip-56{opacity:0.67;fill:#FFFFFF;enable-background:new    ;}
	.st14_road-trip-56{fill:url(#SVGID_00000003813650226230916620000014884389553541612448_);}
	.st15_road-trip-56{fill:url(#SVGID_00000062913146347678170590000016231953114353585842_);}
	.st16_road-trip-56{fill:url(#SVGID_00000147211775029528739610000016150256142419495096_);}
	.st17_road-trip-56{fill:#2C9135;}
	.st18_road-trip-56{opacity:0.3;fill:#0B096E;enable-background:new    ;}
</style>
<g id="field_road-trip-56">
	<path class="st0_road-trip-56" d="M485.1,267.9L300.2,160.3c-2.7-1.6-6-1.6-8.7,0L14.9,318.6c-4.2,2.4-5.6,7.7-3.2,11.9c0.8,1.3,1.9,2.5,3.2,3.2&#10;&#9;&#9;l176.8,102.1c8.8,5.1,19.7,5.1,28.5,0L485.1,283c4.2-2.4,5.6-7.8,3.2-11.9C487.5,269.7,486.4,268.7,485.1,267.9z"/>
	<polygon class="st1_road-trip-56" points="81.7,280.2 285.7,397.9 429.9,314.7 226.6,197.1 &#9;"/>
	<path class="st2_road-trip-56" d="M398.8,217.5c0,0-19.8,10.5-16.9,24.7s17.7-1.4,23,15s-4.3,30.8,16.3,33.4s58.1-26.1,58.1-26.1L398.8,217.5z"/>
	<path class="st3_road-trip-56" d="M403.3,220.3c0,0-19.8,9.7-16.9,22.9c2.9,13.2,17.7-1.3,23,13.9c5.3,15.1-4.3,28.6,16.3,31&#10;&#9;&#9;s53.5-23.6,53.5-23.6L403.3,220.3z"/>
</g>
<g id="car_road-trip-56">
	
		<linearGradient id="SVGID_1_-road-trip-56" gradientUnits="userSpaceOnUse" x1="206.8665" y1="157.2224" x2="231.7865" y2="194.8023" gradientTransform="matrix(1 0 0 -1 0 502)">
		<stop offset="0" style="stop-color:#DDDDDD;stop-opacity:0.3"/>
		<stop offset="0.99" style="stop-color:#0B096E;stop-opacity:0.1"/>
	</linearGradient>
	<path class="st4_road-trip-56" d="M213.8,248.7l-92.1,56.6l130.2,73.1l69.4-38.3C305.3,330.8,229.6,258.3,213.8,248.7z"/>
	<path class="st5_road-trip-56 targetColor" d="M345.6,294.7l-8.3-14c-9.1-7.1-31.5-23.8-31.5-23.8c-6.5-8.2-24.4-26-24.4-26c-12.7-9.3-60.1-34.6-63.7-35&#10;&#9;&#9;s-16,2.3-17.9,2.5s-7.7-3.8-7.7-3.8c-17.2,1.4-34,15.5-42.1,21.6c-4.8,3.8-7.8,9.5-8.2,15.7c0,0-0.9,29.5-0.4,31s5.3,4.9,5.3,4.9&#10;&#9;&#9;s-0.1-16.6,11.9-10.7s14.6,26.4,15.7,27.5s59.9,35.1,72.9,42.6c-0.1-3.7,0.4-7.5,3.1-10.1c3.2-3.1,8-2.7,11.8-1.1&#10;&#9;&#9;c3.9,1.5,7.3,4.2,9.6,7.6c3.5,4.3,5.1,9.9,6,15.2c0.1,0.7,0.5,9.9,0.6,9.9c31.7,10.4,66.9-27.7,67.6-30.7S345.6,294.7,345.6,294.7z&#10;&#9;&#9;" style="fill: rgb(104, 225, 253);"/>
	<path class="st6_road-trip-56" d="M345.6,294.7l-8.3-14c-9.1-7.1-31.5-23.8-31.5-23.8c-6.5-8.2-24.4-26-24.4-26c-12.7-9.3-60.1-34.6-63.7-35&#10;&#9;&#9;s-16,2.3-17.9,2.5s-7.7-3.8-7.7-3.8c-17.2,1.4-34,15.5-42.1,21.6c-4.8,3.8-7.8,9.5-8.2,15.7c0,0-0.9,29.5-0.4,31s5.3,4.9,5.3,4.9&#10;&#9;&#9;s-0.1-16.6,11.9-10.7s14.6,26.4,15.7,27.5s59.9,35.1,72.9,42.6c-0.1-3.7,0.4-7.5,3.1-10.1c3.2-3.1,8-2.7,11.8-1.1&#10;&#9;&#9;c3.9,1.5,7.3,4.2,9.6,7.6c3.5,4.3,5.1,9.9,6,15.2c0.1,0.7,0.5,9.9,0.6,9.9c31.7,10.4,66.9-27.7,67.6-30.7S345.6,294.7,345.6,294.7z&#10;&#9;&#9;"/>
	<path class="st6_road-trip-56" d="M320.6,322.1c-11.9,7.5-24.1,10.8-44.7,8.1c0.4,1.5,1.7,7.3,2,8.7c0.1,0.7,0.5,9.9,0.6,9.9&#10;&#9;&#9;c31.7,10.4,66.9-27.7,67.6-30.7c0.6-2.8-0.3-20.4-0.4-23.1C339.9,306.9,338.5,310.8,320.6,322.1z"/>
	<path class="st3_road-trip-56" d="M304.4,326.9c0.9-0.3,1.7-0.7,2.4-1.4c1.3-1.4,0.4-3.1-0.6-4.4c-1-1.2-2.3-2-3.8-2.3c-3-0.8-6-1.4-9.1-1.8&#10;&#9;&#9;c-2-0.3-4.1-0.5-6.1-0.7c-2.2-0.3-4.5-0.3-6.7,0.1c-2.3,0.5-1.8,3.5-1,5c1.5,2.5,3.7,4.5,6.2,5.8c1.8,1,3.8,1.6,5.8,1.8&#10;&#9;&#9;c2.2,0.1,4.4-0.1,6.5-0.5c1.6-0.3,3.2-0.6,4.7-1.1C303.3,327.2,303.8,327.1,304.4,326.9z"/>
	<path class="st3_road-trip-56" d="M345.6,294.7c0,0-3.8,7.5-6.1,9.4s-3.3,0.6-3.6-1.3s1.1-22.1,1.5-22.1S343.2,283.5,345.6,294.7z"/>
	<path class="st3_road-trip-56" d="M331.4,301c-0.7,0.3-1.4,1-2,1.3c-3.8,2.3-7.6,4.7-11.4,7l-5.7,3.5c-1.2,0.8-4,1.7-2.8,3.6&#10;&#9;&#9;c1.3,1.9,2.9,3.6,4.8,5c1.3,1.1,2.3,1.4,3.8,0.5c2.8-1.6,5.6-3.2,8.4-4.9c2.1-1.3,4.6-2.9,5.3-5.4c0.7-2.7,1.2-5.4,1.4-8.2&#10;&#9;&#9;c0.1-0.9,0.2-2.9-1.2-2.6C331.7,300.8,331.5,300.9,331.4,301z"/>
	<path class="st3_road-trip-56" d="M334,315.2c0,0,0.2,4.8,0.1,4.9c-5.5,4.7-11.7,8.5-18.4,11.2l-0.1-4.6C315.7,326.6,326.7,321.2,334,315.2z"/>
	<path class="st3_road-trip-56" d="M297,341c-1,0.3-1.7,1.2-1.7,2.2c0,2.4,2.1,2.2,3.8,2.3c2.1,0.1,20.6-6.2,32.7-15.6s14.1-17.5,14.1-17.5&#10;&#9;&#9;l-0.1-6.2c0,0-3,12.8-18.8,22.2c-6.5,3.8-13.4,7.1-20.5,9.6c-2.2,0.8-4.5,1.5-6.7,2.1C298.8,340.4,297.9,340.7,297,341z"/>
	<path class="st3_road-trip-56" d="M277.2,232.2c2.5-2.4,24.5,22.1,25.9,25.4s3.4,5.4-1.1,10.5s-30.3,20.1-35.4,21.4s-7.9,4-14.8-2.4&#10;&#9;&#9;s-17.4-27-17.4-27S264.7,244.2,277.2,232.2z"/>
	<path class="st7_road-trip-56" d="M301.6,252.5c0,0,4.9-4.1,8.1-2.6s-4,7-4,7L301.6,252.5z"/>
	<path class="st3_road-trip-56" d="M171.9,224.5l-13.1,0.8c0,0-1.9,0.7-0.8-2.5s13.8-16.1,30.8-20.1c0,0,23.4-4.1,19.1-2.4&#10;&#9;&#9;C205.4,201.4,186.3,210.4,171.9,224.5z"/>
	
		<ellipse transform="matrix(0.9003 -0.4352 0.4352 0.9003 -103.9972 96.6464)" class="st7_road-trip-56" cx="159" cy="275.4" rx="13.6" ry="20.3"/>
	
		<ellipse transform="matrix(0.9003 -0.4352 0.4352 0.9003 -104.1715 96.0738)" class="st1_road-trip-56" cx="157.7" cy="275.5" rx="7.4" ry="11"/>
	<path class="st3_road-trip-56" d="M172.7,246.1c-4.3-3-8.6-6.1-12.8-9.2c2.4-1.3,5-2.2,7.7-2.5c1.6-0.1,3.3-0.1,4.9,0L172.7,246.1z"/>
	<path class="st3_road-trip-56" d="M201.6,242.9c9.4,4.5,17.8,10.8,24.7,18.6c7.1,8.2,12.6,17.5,16.5,27.6c0.4,1-0.1,2.1-1.1,2.5&#10;&#9;&#9;c-0.6,0.2-1.2,0.2-1.7-0.2c-7.3-4.6-21.9-13.7-32.4-20.4l-2.6-1.7v-0.2l-2.9-2.1L201.6,242.9z"/>
	<path class="st3_road-trip-56" d="M176.6,234.7c3.8,0.5,7.6,1.4,11.3,2.6c2.6,0.9,5.3,1.8,7.9,2.9l0.4,22.6l-18.4-13.2l-0.9-0.7L176.6,234.7z"/>
	<path class="st7_road-trip-56" d="M203.1,205.1c0,0-15.4,8.2-21.3,15.7c0,0,0.6,3,3.7,1.6c0,0,19.3-15.7,25.7-17.9"/>
	<path class="st5_road-trip-56 targetColor" d="M249.4,219.1c3.3-1.6,6.6-3.1,9.5-4.4c0.1,0.1,0.1,0.2,0.2,0.3c4.2,3.7,7.1,8.6,8.3,14.1&#10;&#9;&#9;c-3.2,2.5-6.5,4.7-10,6.7c-1.1-6.1-3.8-11.8-7.8-16.6L249.4,219.1z" style="fill: rgb(104, 225, 253);"/>
	<path class="st5_road-trip-56 targetColor" d="M262,213.4c2.7-1.2,4.5-2,4.5-2s3.3,0.6,6.8,8.4c0.8,1.9-0.6,4.3-3.2,6.9C268.6,221.6,265.9,217,262,213.4z" style="fill: rgb(104, 225, 253);"/>
	<path class="st5_road-trip-56 targetColor" d="M234.6,227.7c0.4-1.3,6-4.3,12.3-7.4c0,0.4,0.1,0.9,0.4,1.2c3.8,4.6,6.2,10.1,7.1,15.9&#10;&#9;&#9;c-6.9,3.7-13.4,6.2-15.1,5.8C228.1,240.1,233.5,230.7,234.6,227.7z" style="fill: rgb(104, 225, 253);"/>
	<path class="st5_road-trip-56 targetColor" d="M259,215c-0.1-0.1-0.1-0.2-0.2-0.3l3.1-1.4c3.9,3.6,6.6,8.2,8,13.4c-0.8,0.8-1.7,1.6-2.7,2.4&#10;&#9;&#9;C266.1,223.6,263.2,218.7,259,215z" style="fill: rgb(104, 225, 253);"/>
	<path class="st5_road-trip-56 targetColor" d="M246.9,220.3l2.5-1.2l0.1,0.1c4,4.8,6.7,10.5,7.8,16.6c-1,0.6-2,1.1-2.9,1.6c-0.9-5.8-3.4-11.3-7.1-15.9&#10;&#9;&#9;C247,221.2,246.8,220.8,246.9,220.3z" style="fill: rgb(104, 225, 253);"/>
	<path class="st8_road-trip-56" d="M259,215c-0.1-0.1-0.1-0.2-0.2-0.3l3.1-1.4c3.9,3.6,6.6,8.2,8,13.4c-0.8,0.8-1.7,1.6-2.7,2.4&#10;&#9;&#9;C266.1,223.6,263.2,218.7,259,215z"/>
	<path class="st8_road-trip-56" d="M246.9,220.3l2.5-1.2l0.1,0.1c4,4.8,6.7,10.5,7.8,16.6c-1,0.6-2,1.1-2.9,1.6c-0.9-5.8-3.4-11.3-7.1-15.9&#10;&#9;&#9;C247,221.2,246.8,220.8,246.9,220.3z"/>
	<polygon class="st2_road-trip-56" points="225.9,247.7 242,238.9 241.6,218.8 224.2,228.4 &#9;"/>
	<polygon class="st9_road-trip-56" points="225.9,247.7 242,238.9 241.6,218.8 224.2,228.4 &#9;"/>
	<path class="st2_road-trip-56" d="M266.7,198.1l0.2,13.2c0,0.4-0.2,0.7-0.5,0.9l-24.7,14.6c-0.7,0.4,0-1.3,0-2v-13.4c0-0.4,0.2-0.8,0.5-0.9&#10;&#9;&#9;l23-13.2c0.5-0.3,1.1-0.1,1.4,0.4C266.7,197.8,266.7,197.9,266.7,198.1z"/>
	<path class="st9_road-trip-56" d="M266.7,198.1l0.2,13.2c0,0.4-0.2,0.7-0.5,0.9l-24.7,14.6c-0.7,0.4,0-1.3,0-2v-13.4c0-0.4,0.2-0.8,0.5-0.9&#10;&#9;&#9;l23-13.2c0.5-0.3,1.1-0.1,1.4,0.4C266.7,197.8,266.7,197.9,266.7,198.1z"/>
	<path class="st2_road-trip-56" d="M266.7,203.8c0,0,0.4,1.7,0,1.7s-25.1,14.9-25.1,14.9v-1.6L266.7,203.8z"/>
	<path class="st8_road-trip-56" d="M266.7,203.8c0,0,0.4,1.7,0,1.7s-25.1,14.9-25.1,14.9v-1.6L266.7,203.8z"/>
	<polygon class="st10_road-trip-56" points="250.3,211.7 250.4,215.9 247.7,217.5 247.6,213.3 &#9;"/>
	<path class="st2_road-trip-56" d="M241.6,218.8c-1.5,0.7-16,9.6-16,9.6l-29.1-15.9c0,0,11.1-7.5,12.1-7.2S241.6,218.8,241.6,218.8z"/>
	<path class="st2_road-trip-56" d="M265.8,197.1c0,0-29.6-17.3-30-17.1s-23.6,14.2-23.6,14.2l29.5,17.1L265.8,197.1z"/>
	<polygon class="st10_road-trip-56" points="261,205.2 261.1,209.3 258.4,211 258.3,206.8 &#9;"/>
	<polygon class="st2_road-trip-56" points="196.5,212.5 196.9,232 225.9,247.7 225.6,228.3 &#9;"/>
	<polygon class="st11_road-trip-56" points="196.5,212.5 196.9,232 225.9,247.7 225.6,228.3 &#9;"/>
	<path class="st12_road-trip-56" d="M241.9,210.2c0,0,3.9,2.2,0.5,7.4s-6.2,5.6-10.4,4.4c-1-1.3-1.6-2.9-1.6-4.6&#10;&#9;&#9;C230.2,214.4,233.4,206.4,241.9,210.2z"/>
	<path class="st12_road-trip-56" d="M210,193.3c0.8,0,1.5,0.3,2.1,0.7c5.2,3.3,10.8,5.8,16.2,8.6c1.6,0.8,3.2,1.6,4.7,2.6l8.9,5l0.3,0.2&#10;&#9;&#9;c0,0-4.1-1.6-7.1,0.8s-5.9,7.2-3.1,10.8c0,0-28.8-15.8-28.9-16.2c-0.1-0.3-0.2-0.6-0.3-0.9c-0.2-0.7-0.4-1.3-0.5-2&#10;&#9;&#9;c-0.4-1.8-0.1-3.7,0.7-5.4c0.8-1.3,2-2.4,3.4-3c0.7-0.3,1.4-0.6,2.1-0.8C209,193.5,209.5,193.3,210,193.3L210,193.3z"/>
	<path class="st11_road-trip-56" d="M210,193.3c0.8,0,1.5,0.3,2.1,0.7c5.2,3.3,10.8,5.8,16.2,8.6c1.6,0.8,3.2,1.6,4.7,2.6l8.9,5l0.3,0.2&#10;&#9;&#9;c0,0-4.1-1.6-7.1,0.8s-5.9,7.2-3.1,10.8c0,0-28.8-15.8-28.9-16.2c-0.1-0.3-0.2-0.6-0.3-0.9c-0.2-0.7-0.4-1.3-0.5-2&#10;&#9;&#9;c-0.4-1.8-0.1-3.7,0.7-5.4c0.8-1.3,2-2.4,3.4-3c0.7-0.3,1.4-0.6,2.1-0.8C209,193.5,209.5,193.3,210,193.3L210,193.3z"/>
	<path class="st10_road-trip-56" d="M233.2,217.2c0-1.8,1.2-3.4,2.9-3.9c1.5-0.4,3.1,0.1,3.3,1.8c-0.1,1.7-1.2,3.1-2.8,3.4&#10;&#9;&#9;c-1.8,0.2-1.5-1.8-0.9-2.7c0.4-0.6,1.4-0.1,1,0.5c0,1,0.3,1.2,0.9,0.4c1-0.8,0.6-1.6-1.1-2.3c-0.9,0.1-1.7,1.2-1.9,1.9&#10;&#9;&#9;c-0.8,2.4,0.9,4.4,3.5,2.8c1.5-0.8,2.5-2.5,2.5-4.2c-0.2-2.3-2.4-2.9-4.5-2.5c-0.7,0.1-1-0.9-0.3-1c1.9-0.4,3.9-0.2,5.1,1.3&#10;&#9;&#9;c1.1,1.6,1.1,3.7-0.1,5.3c-1,1.4-2.8,3-4.8,2.8C233.9,220.5,233.1,219.2,233.2,217.2z"/>
	<path class="st7_road-trip-56" d="M239,249.2c10.3-5.2,20.2-11.2,29.5-18c2.2-1.6,4.3,2,2.2,3.6c-9.4,6.8-19.2,12.8-29.5,18&#10;&#9;&#9;C238.8,254,236.6,250.4,239,249.2z"/>
	<path class="st7_road-trip-56" d="M264.7,233.9c0.5-0.4-8.7-30.2-9.4-30.9c-1.6-1.4-28.8-17.5-28.8-17.5l-1.7,1l29.1,17.5c0,0,9.6,29.5,9.6,30.6&#10;&#9;&#9;"/>
	<path class="st7_road-trip-56" d="M255.7,240.1c0.5-0.4-8.9-30.9-9.6-31.5c-1.6-1.4-28.8-17.5-28.8-17.5l-1.7,1l29.1,17.5c0,0,9.8,30.2,9.7,31.3&#10;&#9;&#9;"/>
	
		<ellipse transform="matrix(0.9003 -0.4352 0.4352 0.9003 -119.1237 147.4658)" class="st7_road-trip-56" cx="262.4" cy="333.8" rx="13.7" ry="21"/>
	
		<ellipse transform="matrix(0.9003 -0.4352 0.4352 0.9003 -119.2529 146.9307)" class="st1_road-trip-56" cx="261.1" cy="333.8" rx="7.5" ry="11.4"/>
	<polygon class="st13_road-trip-56" points="260.2,244.9 263.2,290.4 270,288 266.1,241 &#9;"/>
	<path class="st13_road-trip-56" d="M277.2,232.2l3.6,50.1l2.6-1.5c0.4-0.2-3.2-47.5-3.2-47.5S277.9,231.5,277.2,232.2z"/>
</g>
<g id="trees_road-trip-56">
	
		<linearGradient id="SVGID_00000167361678625639466030000009078534101566886819_-road-trip-56" gradientUnits="userSpaceOnUse" x1="339.0338" y1="264.5129" x2="324.9038" y2="256.9929" gradientTransform="matrix(1 0 0 -1 0 502)">
		<stop offset="1.000000e-02" style="stop-color:#2C9135"/>
		<stop offset="0.99" style="stop-color:#A2C609"/>
	</linearGradient>
	<path style="fill:url(#SVGID_00000167361678625639466030000009078534101566886819_);" d="M339.4,230.9c-4.7,2.8-12.2,6.9-17,9.6&#10;&#9;&#9;c-1.5,0.8-3,1.7-4.5,2.5l11.1,6.2l16.8-9.3C344.3,239.1,343.4,234.5,339.4,230.9z"/>
	
		<linearGradient id="SVGID_00000105400923437427754940000007985547064143713683_-road-trip-56" gradientUnits="userSpaceOnUse" x1="304.6711" y1="309.1992" x2="288.881" y2="300.7992" gradientTransform="matrix(1 0 0 -1 0 502)">
		<stop offset="1.000000e-02" style="stop-color:#2C9135"/>
		<stop offset="0.99" style="stop-color:#A2C609"/>
	</linearGradient>
	<path style="fill:url(#SVGID_00000105400923437427754940000007985547064143713683_);" d="M305.1,185.4c-5.3,3.1-13.6,7.7-19,10.7&#10;&#9;&#9;c-1.7,0.9-3.3,1.9-5,2.8l12.4,7l18.8-10.4C310.6,194.6,309.5,189.4,305.1,185.4z"/>
	
		<linearGradient id="SVGID_00000044150632264636435320000005729059082408237993_-road-trip-56" gradientUnits="userSpaceOnUse" x1="85.1301" y1="166.1598" x2="63.5901" y2="154.6998" gradientTransform="matrix(1 0 0 -1 0 502)">
		<stop offset="1.000000e-02" style="stop-color:#2C9135"/>
		<stop offset="0.99" style="stop-color:#A2C609"/>
	</linearGradient>
	<path style="fill:url(#SVGID_00000044150632264636435320000005729059082408237993_);" d="M85.7,325.8c-7.2,4.3-18.6,10.6-26,14.6&#10;&#9;&#9;c-2.3,1.3-4.5,2.5-6.8,3.8l16.9,9.5l25.6-14.1C93.2,338.3,91.8,331.2,85.7,325.8z"/>
	<path class="st10_road-trip-56" d="M301.4,102.5h10.1c1.1,0,2,0.9,2,2v89.4c0,1.1-0.9,2-2,2h-10.1c-1.1,0-2-0.9-2-2v-89.4&#10;&#9;&#9;C299.3,103.4,300.2,102.5,301.4,102.5z"/>
	<path class="st17_road-trip-56" d="M341.2,121.6c-3.2-14.1-17.7-76.2-43.3-58c-13.1,9.3-16.8,24-22,38.3c-4.3,11.8-8,24.3-8.1,37&#10;&#9;&#9;c-0.4,25.9,25.9,29,46,28.9c11.6-0.1,28.1-6.9,30.9-19.5c1.6-7.6-1.1-16.6-2.8-24C341.6,123.4,341.4,122.5,341.2,121.6z"/>
	<path class="st18_road-trip-56" d="M342.4,124.3c-0.2-0.9-0.4-1.8-0.6-2.8c-2.9-12.5-14.5-62.5-34.8-61.2c6,26.4,15,54.2,10.2,81.2&#10;&#9;&#9;c-1.6,9.4-5.2,18.7-10.8,26.1c2.7,0.1,5.4,0.2,7.9,0.2c11.6-0.1,28.1-6.9,30.9-19.5C346.8,140.8,344,131.8,342.4,124.3z"/>
	<path class="st10_road-trip-56" d="M338.4,175.4h6.4c1,0,1.7,0.8,1.7,1.7v61.6c0,1-0.8,1.7-1.7,1.7h-6.4c-1,0-1.7-0.8-1.7-1.7v-61.6&#10;&#9;&#9;C336.7,176.2,337.4,175.4,338.4,175.4z"/>
	<path class="st17_road-trip-56" d="M365.8,188.7c-2.3-9.8-12.3-53.1-30.2-40.4c-9.1,6.5-11.7,16.7-15.4,26.7c-3,8.2-5.5,16.9-5.7,25.8&#10;&#9;&#9;c-0.3,18,18,20.2,32.1,20.1c8.1,0,19.6-4.8,21.5-13.6c1.1-5.3-0.8-11.5-1.9-16.7C366.1,190,366,189.4,365.8,188.7z"/>
	<path class="st18_road-trip-56" d="M366.7,190.6c-0.1-0.6-0.3-1.3-0.4-1.9c-2-8.7-10.1-43.6-24.3-42.7c4.2,18.4,10.4,37.8,7.1,56.6&#10;&#9;&#9;c-1.1,6.6-3.6,12.8-7.5,18.2c1.9,0.1,3.8,0.1,5.5,0.1c8.1,0,19.6-4.8,21.5-13.6C369.8,202.1,367.8,195.8,366.7,190.6z"/>
	<path class="st10_road-trip-56" d="M85.1,250.9h9.4c1.1,0,2,0.9,2,2v85.3c0,1.1-0.9,2-2,2h-9.4c-1.1,0-2-0.9-2-2v-85.3&#10;&#9;&#9;C83,251.8,83.9,250.9,85.1,250.9z"/>
	<path class="st17_road-trip-56" d="M123,269.1c-3.1-13.5-16.9-72.9-41.4-55.4c-12.5,8.9-16.1,22.9-21.1,36.6c-4.2,11.3-7.6,23.2-7.8,35.4&#10;&#9;&#9;c-0.4,24.7,24.7,27.7,44,27.6c11.1-0.1,26.9-6.6,29.5-18.6c1.6-7.3-1.1-15.8-2.7-22.9C123.4,270.9,123.2,270,123,269.1z"/>
	<path class="st18_road-trip-56" d="M124.2,271.8c-0.2-0.9-0.4-1.8-0.6-2.6c-2.8-11.9-13.8-59.7-33.3-58.6c5.8,25.2,14.3,51.8,9.8,77.6&#10;&#9;&#9;c-1.6,9-5,17.9-10.3,25c2.6,0.1,5.1,0.2,7.6,0.2c11.1,0,26.9-6.6,29.5-18.6C128.4,287.4,125.8,278.9,124.2,271.8z"/>
</g>
</svg>